# xmcd
#
# Track frame offsets:
#	150
#	14020
#	25370
#	40825
#	56567
#
# Disc length: 954 seconds
#
# Revision: 0
# Processed by: cddbd v1.4PL0 Copyright (c) Steve Scherf et al.
# Submitted via: EasyCDDAExtractor 4.6.9.1
#
DISCID=3c03b805
DTITLE=Dave Heslington - Ain't You, Ain't Me
DYEAR=1992
DGENRE=Country
TTITLE0=Ain't You, Ain't Me
TTITLE1=Thinking Of You
TTITLE2=As Long As I Have You
TTITLE3=Hurricane With A Women's Name
TTITLE4=I Love To Play
EXTD=
EXTT0=
EXTT1=
EXTT2=
EXTT3=
EXTT4=
PLAYORDER=
